# xmcd
#
# Track frame offsets:
#	150
#	17567
#	26319
#	45415
#	65787
#	81987
#	96969
#	112008
#	130441
#	146135
#	163279
#	180128
#	198587
#
# Disc length: 2908 seconds
# Revision: 0
# Processed by: cddbd v1.5.2PL0 Copyright (c) Steve Scherf et al.
# Submitted via: dBpowerAMP V12.0
#
DISCID=b50b5a0d
DTITLE=The Vibrolators and Alison Penney - Frangipani
DYEAR=2011
DGENRE=Blues
TTITLE0=No no no
TTITLE1=A Little Bird Told me
TTITLE2=Third Degree Burn 
TTITLE3=Nobody Really 
TTITLE4=Judge And Jury 
TTITLE5=Chocolate Frenzy 
TTITLE6=Nine Lives 
TTITLE7=No Tone Cat 
TTITLE8=It's Love Baby 
TTITLE9=Maintenance Man 
TTITLE10=One Night 
TTITLE11=5-10-15 Hours
TTITLE12=Strange Love 
EXTD=
EXTT0=
EXTT1=
EXTT2=
EXTT3=
EXTT4=
EXTT5=
EXTT6=
EXTT7=
EXTT8=
EXTT9=
EXTT10=
EXTT11=
EXTT12=
PLAYORDER=
